<svg xmlns="http://www.w3.org/2000/svg" viewBox="0 0 100 100" role="img" aria-label="ALX">
  <rect width="100" height="100" rx="22" fill="#1C1F2A"/>
  <g fill="#FFFFFF" transform="translate(-27.7,1.7) scale(0.42)">
    <path d="M258.698 128.735L244.107 114.233L258.705 99.6342L260 98.3393L258.705 97.0445L248.931 87.2703L247.636 85.9755L246.341 87.2703L231.743 101.869L217.241 87.2777L215.946 85.9755L214.644 87.2703L204.869 97.0445L203.582 98.3393L204.862 99.6342L219.379 114.233L204.869 128.742L203.575 130.037L204.869 131.332L214.644 141.106L215.938 142.401L217.233 141.106L231.743 126.596L246.349 141.113L247.636 142.401L248.931 141.106L258.705 131.332L260 130.03L258.698 128.735Z"/>
    <path d="M177.68 85.1168V153.506H195.822V77L177.68 85.1168Z"/>
    <path d="M148.483 126.293C148.172 132.123 143.348 136.763 137.436 136.763C131.524 136.763 126.374 131.813 126.374 125.701C126.374 119.589 131.324 114.639 137.436 114.639C143.547 114.639 148.172 119.278 148.483 125.109V126.293ZM148.483 98.1911V100.588C145.101 99.1012 141.365 98.2651 137.436 98.2651C122.282 98.2725 110 110.548 110 125.701C110 140.854 122.282 153.137 137.436 153.137C141.365 153.137 145.101 152.301 148.483 150.813V153.507H166.625V98.1985H148.483V98.1911Z"/>
  </g>
</svg>
